name analog
datacolumns 19
datarows 28
range 0.0 0.0135
endheader
time	ground_force_vx	ground_force_vy	ground_force_vz	ground_force_px	ground_force_py	ground_force_pz	l_ground_force_vx	l_ground_force_vy	l_ground_force_vz	l_ground_force_px	l_ground_force_py	l_ground_force_pz	ground_torque_x	ground_torque_y	ground_torque_z	l_ground_torque_x	l_ground_torque_y	l_ground_torque_z
0.0	-0.0	-0.0	-0.0	-5.56170129776001	40.44015884399414	-375.783447265625	-3.5952694416046143	-37.8532600402832	-384.6002807617188	-0.0	-0.0	-0.0	-0.0	-0.0	-0.0	105318.5546875	15611.8984375	-5365.70068359375
0.0005	-0.0	-0.0	-0.0	-5.500645637512207	40.501258850097656	-375.59564208984375	-3.454658269882202	-37.9884033203125	-383.388427734375	-0.0	-0.0	-0.0	-0.0	-0.0	-0.0	105356.265625	15729.197265625	-5369.00439453125
0.001	-0.0	-0.0	-0.0	-6.304819107055664	40.46520233154297	-376.6087646484375	-3.53801703453064	-38.12377166748047	-382.6291809082031	-0.0	-0.0	-0.0	-0.0	-0.0	-0.0	105269.8828125	15785.982421875	-5456.42138671875
0.0015	-0.0	-0.0	-0.0	-6.024671077728272	40.518646240234375	-377.3844909667969	-3.590134620666504	-38.21761322021485	-383.8609008789063	-0.0	-0.0	-0.0	-0.0	-0.0	-0.0	105042.953125	15697.9580078125	-5454.72509765625
0.002	-0.0	-0.0	-0.0	-6.024731636047363	40.56641387939453	-378.42034912109375	-3.626291751861572	-38.33701705932617	-383.3471374511719	-0.0	-0.0	-0.0	-0.0	-0.0	-0.0	105123.2734375	15798.0615234375	-5528.01416015625
0.0025	-0.0	-0.0	-0.0	-6.024804592132568	40.566707611083984	-378.4690856933594	-3.778563499450684	-38.59658050537109	-384.5576171875	-0.0	-0.0	-0.0	-0.0	-0.0	-0.0	105192.28125	15642.4541015625	-5500.337890625
0.003	-0.0	-0.0	-0.0	-5.894181728363037	40.59576034545898	-379.7828063964844	-3.778709173202514	-38.47256088256836	-384.8616027832031	-0.0	-0.0	-0.0	-0.0	-0.0	-0.0	105092.875	16029.7431640625	-5650.52197265625
0.0035	-0.0	-0.0	-0.0	-6.655816078186035	40.799617767333984	-378.6597290039063	-3.991985321044922	-38.80294418334961	-386.1388854980469	-0.0	-0.0	-0.0	-0.0	-0.0	-0.0	105446.5	16080.2080078125	-5603.39697265625
0.004	-0.0	-0.0	-0.0	-6.183744430541992	40.88466262817383	-379.1257019042969	-3.9092066287994394	-38.58477020263672	-383.7643432617188	-0.0	-0.0	-0.0	-0.0	-0.0	-0.0	105336.0859375	15847.64453125	-5605.244140625
0.0045000000000000005	-0.0	-0.0	-0.0	-6.100942611694336	40.63682174682617	-380.1323852539063	-3.637142181396485	-38.76721954345703	-386.8125305175781	-0.0	-0.0	-0.0	-0.0	-0.0	-0.0	105770.8671875	15747.0869140625	-5646.5849609375
0.005	-0.0	-0.0	-0.0	-5.805480480194092	40.82172393798828	-380.5110168457031	-3.7320265769958496	-38.92107009887695	-386.1616821289063	-0.0	-0.0	-0.0	-0.0	-0.0	-0.0	105854.1640625	16094.708984375	-5623.17236328125
0.0055	-0.0	-0.0	-0.0	-5.949525833129883	41.061771392822266	-380.0216064453125	-3.6084625720977774	-38.75091171264648	-387.53363037109375	-0.0	-0.0	-0.0	-0.0	-0.0	-0.0	105867.2578125	15985.578125	-5692.0244140625
0.006	-0.0	-0.0	-0.0	-5.593196392059326	40.58838653564453	-381.4621276855469	-3.938043594360352	-38.773223876953125	-386.93548583984375	-0.0	-0.0	-0.0	-0.0	-0.0	-0.0	106101.5	15913.2607421875	-5708.14453125
0.006500000000000001	-0.0	-0.0	-0.0	-5.6827712059021	40.759273529052734	-379.7741394042969	-3.957433462142944	-38.54265594482422	-387.3708801269531	-0.0	-0.0	-0.0	-0.0	-0.0	-0.0	105911.9140625	15841.41015625	-5621.29345703125
0.007	-0.0	-0.0	-0.0	-5.256160736083984	40.739845275878906	-381.1386413574219	-3.7668919563293457	-39.010536193847656	-386.6462707519531	-0.0	-0.0	-0.0	-0.0	-0.0	-0.0	106104.640625	16061.7939453125	-5619.0908203125
0.0075	-0.0	-0.0	-0.0	-5.326483249664307	40.506080627441406	-381.0811767578125	-4.162651062011719	-38.74587631225586	-386.4576721191406	-0.0	-0.0	-0.0	-0.0	-0.0	-0.0	106170.828125	15932.3779296875	-5596.4189453125
0.008	-0.0	-0.0	-0.0	-5.263420104980469	40.56932830810547	-382.4509582519531	-4.169406890869141	-38.85470199584961	-387.18206787109375	-0.0	-0.0	-0.0	-0.0	-0.0	-0.0	106015.015625	16214.19140625	-5651.30078125
0.0085	-0.0	-0.0	-0.0	-4.8810343742370605	40.21305084228516	-381.2124633789063	-4.251121520996094	-38.82783126831055	-387.774169921875	-0.0	-0.0	-0.0	-0.0	-0.0	-0.0	106125.34375	16075.861328125	-5747.0283203125
0.009000000000000001	-0.0	-0.0	-0.0	-4.687437057495117	39.98663330078125	-381.0811767578125	-4.30604362487793	-38.9975814819336	-386.1898193359375	-0.0	-0.0	-0.0	-0.0	-0.0	-0.0	105849.5859375	15915.5205078125	-5742.9033203125
0.0095	-0.0	-0.0	-0.0	-4.615344047546387	40.24630737304688	-381.4655151367188	-4.4618000984191895	-38.94986724853516	-386.322021484375	-0.0	-0.0	-0.0	-0.0	-0.0	-0.0	105745.3671875	16103.42578125	-5694.93994140625
0.01	-0.0	-0.0	-0.0	-4.443881034851074	40.33549880981445	-381.5635070800781	-4.435539245605469	-38.765892028808594	-386.6419677734375	-0.0	-0.0	-0.0	-0.0	-0.0	-0.0	105619.8046875	15903.650390625	-5749.3017578125
0.0105	-0.0	-0.0	-0.0	-4.355180263519287	40.19781494140625	-380.63189697265625	-4.572357177734375	-39.07114410400391	-386.5699157714844	-0.0	-0.0	-0.0	-0.0	-0.0	-0.0	105661.59375	16160.2060546875	-5792.6455078125
0.011	-0.0	-0.0	-0.0	-4.159966468811035	39.93864822387695	-381.78753662109375	-4.564805507659912	-39.07856369018555	-386.1616821289063	-0.0	-0.0	-0.0	-0.0	-0.0	-0.0	105531.6875	15922.8154296875	-5905.29638671875
0.0115	-0.0	-0.0	-0.0	-3.9893743991851807	40.11704254150391	-380.187255859375	-4.8135833740234375	-39.247440338134766	-385.81256103515625	-0.0	-0.0	-0.0	-0.0	-0.0	-0.0	105676.8203125	16061.8779296875	-5730.7939453125
0.012	-0.0	-0.0	-0.0	-3.7383432388305664	39.56541061401367	-379.9543151855469	-4.331098556518555	-39.08626174926758	-384.3540344238281	-0.0	-0.0	-0.0	-0.0	-0.0	-0.0	105859.3046875	15887.1611328125	-5827.15966796875
0.0125	-0.0	-0.0	-0.0	-3.764031410217285	39.80102157592773	-380.2152404785156	-4.387203216552734	-39.0302619934082	-386.7010803222656	-0.0	-0.0	-0.0	-0.0	-0.0	-0.0	105756.0	15747.0869140625	-5730.20703125
0.013000000000000001	-0.0	-0.0	-0.0	-4.014472961425781	39.46730422973633	-378.5396728515625	-4.467735290527344	-38.98191833496094	-387.2410278320313	-0.0	-0.0	-0.0	-0.0	-0.0	-0.0	105819.8359375	15779.87109375	-5811.04345703125
0.0135	-0.0	-0.0	-0.0	-3.666467905044556	39.5650749206543	-378.802978515625	-4.403522968292236	-39.09463119506836	-386.1616821289063	-0.0	-0.0	-0.0	-0.0	-0.0	-0.0	105855.3359375	15825.5615234375	-5695.1005859375
